<?xml version="1.0" encoding="UTF-8"?>
<svg xmlns="http://www.w3.org/2000/svg" xmlns:xlink="http://www.w3.org/1999/xlink" viewBox="0 0 100 100" width="100px" height="100px">
<g id="surface153737070">
<path style=" stroke:none;fill-rule:nonzero;fill:rgb(10.196079%,10.196079%,10.196079%);fill-opacity:1;" d="M 50 4.167969 C 47.703125 4.167969 45.835938 6.035156 45.835938 8.335938 L 45.835938 45.835938 L 8.335938 45.835938 C 6.035156 45.835938 4.167969 47.703125 4.167969 50 C 4.167969 52.300781 6.035156 54.167969 8.335938 54.167969 L 45.835938 54.167969 L 45.835938 91.667969 C 45.835938 93.96875 47.703125 95.835938 50 95.835938 C 52.300781 95.835938 54.167969 93.96875 54.167969 91.667969 L 54.167969 54.167969 L 91.667969 54.167969 C 93.96875 54.167969 95.835938 52.300781 95.835938 50 C 95.835938 47.703125 93.96875 45.835938 91.667969 45.835938 L 54.167969 45.835938 L 54.167969 8.335938 C 54.167969 6.035156 52.300781 4.167969 50 4.167969 Z M 50 4.167969 "/>
</g>
</svg>
