<?xml version="1.0" encoding="UTF-8"?>
<svg xmlns="http://www.w3.org/2000/svg" xmlns:xlink="http://www.w3.org/1999/xlink" viewBox="0 0 100 100" width="100px" height="100px">
<g id="surface121723692">
<path style=" stroke:none;fill-rule:nonzero;fill:rgb(0%,0%,0%);fill-opacity:1;" d="M 72.460938 7.03125 C 81.582031 7.03125 98.832031 13.15625 98.832031 36.328125 C 98.832031 52.515625 88.003906 63.730469 80.101562 71.921875 C 69.632812 82.820312 54.960938 93.183594 54.386719 93.574219 C 53.0625 94.472656 51.53125 94.921875 50 94.921875 C 48.46875 94.921875 46.9375 94.472656 45.617188 93.574219 C 45.039062 93.183594 30.367188 82.816406 19.898438 71.921875 C 11.996094 63.730469 1.171875 52.515625 1.171875 36.328125 C 1.171875 13.15625 18.421875 7.03125 27.539062 7.03125 C 37.113281 7.03125 44.691406 12.035156 50 17.253906 C 55.289062 12.046875 62.875 7.03125 72.460938 7.03125 Z M 72.460938 7.03125 "/>
</g>
</svg>
