<?xml version="1.0" encoding="UTF-8"?>
<svg xmlns="http://www.w3.org/2000/svg" xmlns:xlink="http://www.w3.org/1999/xlink" viewBox="0 0 100 100" width="100px" height="100px">
<g id="surface121648516">
<path style=" stroke:none;fill-rule:nonzero;fill:rgb(0%,0%,0%);fill-opacity:1;" d="M 72.460938 7.03125 C 81.582031 7.03125 98.832031 13.15625 98.832031 36.328125 C 98.832031 52.515625 88.003906 63.730469 80.101562 71.921875 C 69.632812 82.820312 54.960938 93.183594 54.386719 93.574219 C 53.0625 94.472656 51.53125 94.921875 50 94.921875 C 48.46875 94.921875 46.9375 94.472656 45.617188 93.574219 C 45.039062 93.183594 30.367188 82.816406 19.898438 71.921875 C 11.996094 63.730469 1.171875 52.515625 1.171875 36.328125 C 1.171875 13.15625 18.421875 7.03125 27.539062 7.03125 C 37.113281 7.03125 44.691406 12.035156 50 17.253906 C 55.289062 12.046875 62.875 7.03125 72.460938 7.03125 Z M 73.4375 67.578125 C 81.230469 59.472656 91.015625 49.960938 91.015625 36.328125 C 91.015625 18.496094 78.320312 14.84375 72.460938 14.84375 C 63.535156 14.84375 56.640625 21.210938 52.949219 25.546875 C 52.179688 26.464844 51.089844 26.925781 50 26.925781 C 48.914062 26.925781 47.824219 26.464844 47.050781 25.546875 C 43.359375 21.210938 36.464844 14.84375 27.539062 14.84375 C 21.679688 14.84375 8.984375 18.496094 8.984375 36.328125 C 8.984375 49.960938 18.769531 59.472656 26.5625 67.578125 C 36.582031 78.007812 50 87.109375 50 87.109375 C 50 87.109375 63.417969 78.007812 73.4375 67.578125 Z M 73.4375 67.578125 "/>
</g>
</svg>
