<?xml version="1.0" encoding="UTF-8"?>
<svg xmlns="http://www.w3.org/2000/svg" xmlns:xlink="http://www.w3.org/1999/xlink" viewBox="0 0 100 100" width="100px" height="100px">
<g id="surface153546843">
<path style=" stroke:none;fill-rule:evenodd;fill:rgb(10.196079%,10.196079%,10.196079%);fill-opacity:1;" d="M 8.335938 58.335938 L 91.667969 58.335938 C 96.269531 58.335938 100.003906 54.601562 100.003906 50 C 100.003906 45.402344 96.269531 41.667969 91.667969 41.667969 L 8.335938 41.667969 C 3.734375 41.667969 0 45.402344 0 50 C 0 54.601562 3.734375 58.335938 8.335938 58.335938 Z M 8.335938 58.335938 "/>
<path style=" stroke:none;fill-rule:evenodd;fill:rgb(10.196079%,10.196079%,10.196079%);fill-opacity:1;" d="M 58.335938 91.667969 L 58.335938 8.335938 C 58.335938 3.734375 54.601562 0 50 0 C 45.402344 0 41.667969 3.734375 41.667969 8.335938 L 41.667969 91.667969 C 41.667969 96.269531 45.402344 100.003906 50 100.003906 C 54.601562 100.003906 58.335938 96.269531 58.335938 91.667969 Z M 58.335938 91.667969 "/>
</g>
</svg>
