<?xml version="1.0" encoding="UTF-8"?>
<svg xmlns="http://www.w3.org/2000/svg" xmlns:xlink="http://www.w3.org/1999/xlink" viewBox="0 0 100 100" width="100px" height="100px">
<g id="surface153556505">
<path style=" stroke:none;fill-rule:nonzero;fill:rgb(10.196079%,10.196079%,10.196079%);fill-opacity:1;" d="M 40.742188 3.703125 C 20.320312 3.703125 3.703125 20.320312 3.703125 40.742188 C 3.703125 61.164062 20.320312 77.78125 40.742188 77.78125 C 48.101562 77.78125 54.949219 75.597656 60.722656 71.878906 L 84.679688 95.839844 C 87.761719 98.921875 92.757812 98.921875 95.839844 95.839844 C 98.921875 92.757812 98.921875 87.761719 95.839844 84.679688 L 71.878906 60.722656 C 75.597656 54.949219 77.78125 48.101562 77.78125 40.742188 C 77.78125 20.320312 61.164062 3.703125 40.742188 3.703125 Z M 40.742188 18.519531 C 52.992188 18.519531 62.964844 28.488281 62.964844 40.742188 C 62.964844 52.992188 52.992188 62.964844 40.742188 62.964844 C 28.488281 62.964844 18.519531 52.992188 18.519531 40.742188 C 18.519531 28.488281 28.488281 18.519531 40.742188 18.519531 Z M 40.742188 18.519531 "/>
</g>
</svg>
