<svg xmlns="http://www.w3.org/2000/svg" viewBox="0 0 24 24"><path d="M17.7 3.1c-.9.2-1.4 1-1.3 1.9l.6 3c.1.4.4.7.8.8.6.1 1.1-.2 1.2-.8l.6-3v-.6c-.2-.8-1-1.4-1.9-1.3zM4 13.7c3.5 0 6.3 2.8 6.3 6.3 0 .6.4 1 1 1s1-.4 1-1c0-4.6-3.7-8.3-8.3-8.3-.6 0-1 .4-1 1s.4 1 1 1z"/><path d="M4 9.4c5.9 0 10.6 4.8 10.6 10.6 0 .6.4 1 1 1s1-.4 1-1C16.6 13 11 7.4 4 7.4c-.6 0-1 .4-1 1s.4 1 1 1zm0 8.7c1.1 0 1.9.9 1.9 1.9 0 .6.4 1 1 1s1-.4 1-1c0-2.2-1.8-3.9-3.9-3.9-.6 0-1 .4-1 1s.4 1 1 1z"/><circle cx="18" cy="11" r="1"/></svg>